<?xml version="1.0" encoding="utf-8"?>
<!-- Generator: Adobe Illustrator 24.1.0, SVG Export Plug-In . SVG Version: 6.00 Build 0)  -->
<svg version="1.1" id="Layer_1" xmlns="http://www.w3.org/2000/svg" xmlns:xlink="http://www.w3.org/1999/xlink" x="0px" y="0px"
	 viewBox="0 0 155.49 166.03" style="enable-background:new 0 0 155.49 166.03;" xml:space="preserve">
<style type="text/css">
	.st0{fill:#1DDFA3;}
</style>
<g id="Cl7FZr.tif">
	<g>
		<g>
			<path class="st0" d="M115.27,2.51c6.87-0.11,12.72,0,21.74-0.11s14.35,3.66,14.35,11.06s0.62,100.15,0.87,116.43
				c0.07,4.22-1.46,6.3-6.17,6.17c-10.46-0.28-20.94-0.08-31.41-0.09c-5.65-0.01-6.83-1.22-6.84-7.09
				c-0.04-19.01,0.04-31.19,0.04-34.31c0-3.62-5.36-4.11-7.57-1.02c-3.42,4.76-21.56,29.98-21.56,29.98s-15.15,22.23-22.64,33.4
				c-3.12,4.65-6.69,6.09-12.9,6.07c-14.54-0.04-22.63-0.08-37.38-0.33c-2.44,0-4.88-4.33-2.74-7.26
				c8.83-12.88,16.46-24.04,25.25-36.96C45.5,93.15,101.94,11.02,103.27,9.1C105.44,5.95,108.4,2.62,115.27,2.51z"/>
			<path class="st0" d="M133.9,144.29c-4.64,0-9.28-0.11-13.92,0.02c-8.99,0.25-14.47,8.08-11.81,16.66
				c0.61,1.96,2.08,2.48,3.82,2.49c9.78,0.03,19.58,0.43,29.33-0.12c8.04-0.46,13.29-8.68,11.62-16.58
				c-0.54-2.56-2.3-2.46-4.12-2.47C143.84,144.28,138.87,144.29,133.9,144.29z"/>
		</g>
	</g>
</g>
</svg>
